# xmcd
#
# Track frame offsets:
#	150
#	17437
#	46730
#	73827
#	89532
#	101092
#	110185
#	123695
#	136012
#	153215
#	164862
#	177515
#	197102
#
# Disc length: 2831 seconds
#
# Revision: 1
# Processed by: cddbd v1.5.1PL0 Copyright (c) Steve Scherf et al.
# Submitted via: CDex 1.50Beta5
#
DISCID=ba0b0d0d
DTITLE=サウンドトラック - TV HITS COLLECTION Disc 6
DYEAR=1900
DGENRE=
TTITLE0=ドナ・サマー/ホット・スタッフ
TTITLE1=ティアーズ・フォー・フィアーズ/シャウト
TTITLE2=10cc/アイム・ノット・イン・ラブ
TTITLE3=ヴァンゲリス/炎のランナー
TTITLE4=ウォーカー・ブラザース/ダンス天国
TTITLE5=トム・ジョーンズ/よくあることさ
TTITLE6=ジャクソン・ファイヴ/帰ってほしいの
TTITLE7=ダイアナ・ロス&スプリームス/恋はあせらず
TTITLE8=マーヴィン・ゲイ/ホワッツ・ゴーイン・オン
TTITLE9=ザ・プラターズ/オンリー・ユー
TTITLE10=ダスティ・スプリングフィールド/この胸のときめきを
TTITLE11=ジョー・ジャクソン/ステッピン・アウト
TTITLE12=ジェーン・パーキン/インパーフェクト
EXTD=
EXTT0=
EXTT1=
EXTT2=
EXTT3=
EXTT4=
EXTT5=
EXTT6=
EXTT7=
EXTT8=
EXTT9=
EXTT10=
EXTT11=
EXTT12=
PLAYORDER=
